# xmcd CD database file
#
# Track frame offsets:
#	150
#	17161
#	28593
#	42675
#	56607
#	68960
#	81290
#	93214
#	108050
#	122423
#	135351
#	150285
#	161423
#	172752
#
# Disc length: 2502 seconds
#
# Revision: 0
# Processed by: cddbd v1.5.2PL0 Copyright (c) Steve Scherf et al.
# Submitted via: CDex 1.51
#
DISCID=9f09c40e
DTITLE=George Jones - The Very Best of George Jones
DYEAR=1900
DGENRE=Country
TTITLE0=I Wanta Sing
TTITLE1=A Picture Of Me (Without You)
TTITLE2=The Grand Tour
TTITLE3=Borrowed Angel
TTITLE4=I Just Don't Give A Damn
TTITLE5=A Drunk Can't Be A Man
TTITLE6=Stand On My Own Two Knees
TTITLE7=He Stopped Loving Her Today
TTITLE8=If Drinkin' Don't Kill Me (Her Memory Will)
TTITLE9=Brother To The Blues
TTITLE10=I Always Get Lucky With You
TTITLE11=She's My Rock
TTITLE12=The One I Loved Back Then (The Corvette Song)
TTITLE13=Who's Gonna Fill Their Shoes
EXTD=
EXTT0=
EXTT1=
EXTT2=
EXTT3=
EXTT4=
EXTT5=
EXTT6=
EXTT7=
EXTT8=
EXTT9=
EXTT10=
EXTT11=
EXTT12=
EXTT13=
PLAYORDER=
